<!--?xml version="1.0" encoding="utf-8"?-->


<svg version="1.1" xmlns="http://www.w3.org/2000/svg" xmlns:xlink="http://www.w3.org/1999/xlink" x="0px" y="0px" viewBox="0 0 256 256" enable-background="new 0 0 256 256" xml:space="preserve">
<!-- <metadata> Svg Vector Icons : http://www.onlinewebfonts.com/icon </metadata> -->
<g><g><g><path fill="#ED2647" data-title="Layer 0" xs="0" d="M119.2,4.4c-17.3,8.9-34,13-53.5,13c-11.1,0-19-1-29.3-3.7c-3.9-1.1-8-2-8.9-2.1c-2.9-0.4-3.2,0.1-6.7,9.8C0.9,76.9,8.8,139,42.2,187.8c15.1,22.1,35.1,40.8,57.8,54.4c6.4,3.8,18,9.6,24.1,12l3.8,1.5l3.9-1.5c21.1-8.5,42.6-22.8,59.5-39.6c28.4-28.4,46.6-64.2,52.6-104c4.4-28.9,1.6-58.9-8-86.8c-3.4-9.8-4.4-11.8-6.1-12.2c-0.8-0.2-4.2,0.4-8.4,1.6c-13.7,3.7-25.8,4.9-38.6,4c-17.6-1.2-31.5-5.1-46.8-13c-4.2-2.2-7.9-3.9-8.2-3.9C127.5,0.3,123.6,2.1,119.2,4.4z M129.5,42.3c0.9,0.3,2,1.2,2.4,2c0.5,1.1,13.4,40.4,15.5,47.3l0.3,1.2h26h26l1.4,1.3c1.8,1.7,1.9,4.4,0.2,6.3c-0.7,0.7-10.1,7.7-20.9,15.5c-10.8,7.8-19.8,14.3-19.9,14.4c-0.3,0.3,0.3,2.3,8.2,26.6c3.9,12,7.1,22.3,7.1,23c0,1.8-2.8,4.4-4.7,4.4c-1.2,0-6.2-3.4-22.4-15.2l-20.9-15.2l-20.8,15.2c-16.2,11.8-21.1,15.2-22.4,15.2c-1.9,0-4.7-2.6-4.7-4.4c0-0.6,3.5-11.8,7.7-24.7c4.3-12.9,7.7-23.8,7.7-24.2c0-0.4-9.2-7.3-20.3-15.3c-11.2-8-20.6-15.1-21-15.7c-1.2-1.7-0.9-4.2,0.6-5.8l1.4-1.4h25.9h25.9l7.1-22c9.7-30.1,8.6-27.6,12.6-29.1C127.8,41.7,128.6,42,129.5,42.3z"/></g></g></g>
</svg>