<?xml version="1.0" standalone="no"?>
<!DOCTYPE svg PUBLIC "-//W3C//DTD SVG 20010904//EN"
 "http://www.w3.org/TR/2001/REC-SVG-20010904/DTD/svg10.dtd">
<svg version="1.0" xmlns="http://www.w3.org/2000/svg"
 width="476.000000pt" height="476.000000pt" viewBox="0 0 476.000000 476.000000"
 preserveAspectRatio="xMidYMid meet">
<metadata>
Created by potrace 1.16, written by Peter Selinger 2001-2019
</metadata>
<g transform="translate(0.000000,476.000000) scale(0.100000,-0.100000)"
fill="#000000" stroke="none">
<path d="M0 2380 l0 -2380 2380 0 2380 0 0 2380 0 2380 -2380 0 -2380 0 0
-2380z m1763 2109 c31 -16 266 -249 283 -281 8 -15 14 -42 14 -59 0 -29 -20
-53 -167 -202 -93 -93 -181 -175 -197 -182 -43 -19 -82 -3 -146 59 -30 29 -65
59 -77 65 -28 14 -69 14 -96 -1 -79 -42 -358 -306 -473 -448 -75 -92 -84 -109
-84 -154 0 -29 11 -47 70 -110 64 -69 70 -80 70 -118 0 -42 -3 -46 -178 -220
-232 -233 -211 -231 -415 -30 -79 80 -131 139 -138 159 -13 41 2 93 71 238
176 375 535 783 920 1043 146 99 227 145 365 204 115 50 142 55 178 37z m864
-239 c822 -109 1479 -739 1625 -1558 30 -168 32 -461 4 -627 -134 -804 -765
-1441 -1551 -1565 -310 -49 -587 -28 -870 65 -424 139 -760 393 -1014 767
-159 235 -283 591 -298 859 -6 94 -5 96 17 102 13 3 27 4 30 2 4 -2 10 -44 13
-93 30 -418 239 -854 553 -1151 290 -275 660 -454 1034 -500 122 -16 379 -13
494 4 471 71 905 330 1184 706 283 383 406 823 362 1294 -59 613 -447 1174
-1008 1455 -237 118 -468 178 -732 189 l-145 6 -3 28 -3 27 115 0 c63 0 150
-5 193 -10z m-1167 -1281 c100 -16 172 -53 234 -120 88 -95 123 -223 111 -404
-22 -327 -169 -520 -489 -640 -76 -29 -196 -58 -205 -50 -3 4 -18 45 -32 93
l-26 87 46 13 c225 64 356 161 411 307 l10 26 -33 -25 c-90 -69 -228 -83 -329
-33 -68 33 -121 90 -156 166 -37 80 -43 213 -13 308 45 144 164 246 321 273
65 11 78 11 150 -1z m1130 -497 l-1 -467 106 -3 105 -3 0 -99 0 -100 -375 0
-375 0 0 100 0 99 135 3 136 3 0 334 c0 183 -1 334 -3 336 -2 2 -52 -28 -113
-66 -86 -54 -112 -66 -121 -56 -25 26 -102 162 -96 169 9 9 208 131 297 182
l71 41 117 -3 117 -3 0 -467z m985 1 l0 -468 108 -3 107 -3 0 -99 0 -100 -375
0 -375 0 0 100 0 100 135 0 135 0 0 339 0 340 -112 -69 c-89 -55 -115 -67
-124 -57 -29 30 -102 163 -94 171 5 5 84 55 177 111 l168 103 125 1 125 1 0
-467z"/>
<path d="M1307 2762 c-46 -28 -70 -92 -70 -186 -1 -128 46 -196 136 -196 42 0
93 17 130 42 26 18 27 23 27 101 -1 181 -43 257 -145 257 -29 0 -61 -8 -78
-18z"/>
</g>
</svg>
