<svg xmlns="http://www.w3.org/2000/svg" version="1.1" xmlns:xlink="http://www.w3.org/1999/xlink" xmlns:svgjs="http://svgjs.dev/svgjs" width="1000" height="1000" viewBox="0 0 1000 1000"><rect width="1000" height="1000" fill="#ffffff"></rect><g transform="matrix(0.7,0,0,0.7,149.90044910179654,149.90044910179637)"><svg viewBox="0 0 334 334" data-background-color="#ed2647" preserveAspectRatio="xMidYMid meet" height="1000" width="1000" xmlns="http://www.w3.org/2000/svg" xmlns:xlink="http://www.w3.org/1999/xlink"><g id="tight-bounds" transform="matrix(1,0,0,1,0.04749999999998522,0.04750000000001364)"><svg viewBox="0 0 333.90454557049503 333.90454557049503" height="333.90454557049503" width="333.90454557049503"><g><svg></svg></g><g><svg viewBox="0 0 333.90454557049503 333.90454557049503" height="333.90454557049503" width="333.90454557049503"><g><path d="M0 166.952c0-92.205 74.747-166.952 166.952-166.952 92.205 0 166.952 74.747 166.953 166.952 0 92.205-74.747 166.952-166.953 166.953-92.205 0-166.952-74.747-166.952-166.953zM166.952 329.713c89.89 0 162.76-72.87 162.761-162.761 0-89.89-72.87-162.76-162.761-162.76-89.89 0-162.76 72.87-162.76 162.76 0 89.89 72.87 162.76 162.76 162.761z" data-fill-palette-color="tertiary" fill="#000000" stroke="transparent"></path><ellipse rx="160.27418187383762" ry="160.27418187383762" cx="166.95227278524752" cy="166.95227278524752" fill="#000000" stroke="transparent" stroke-width="0" fill-opacity="1" data-fill-palette-color="tertiary"></ellipse></g><g transform="matrix(1,0,0,1,78.61295538028737,71.17305217166896)"><svg viewBox="0 0 176.67863480992028 191.55844122715712" height="191.55844122715712" width="176.67863480992028"><g><svg viewBox="0 0 176.67863480992028 191.55844122715712" height="191.55844122715712" width="176.67863480992028"><g><svg viewBox="0 0 213.15844122715714 231.110562857893" height="191.55844122715712" width="176.67863480992028"><g transform="matrix(1,0,0,1,0,139.64476833215738)"><svg viewBox="0 0 213.15844122715714 91.46579452573563" height="91.46579452573563" width="213.15844122715714"><g id="textblocktransform"><svg viewBox="0 0 213.15844122715714 91.46579452573563" height="91.46579452573563" width="213.15844122715714" id="textblock"><g><svg viewBox="0 0 213.15844122715714 56.079568857447285" height="56.079568857447285" width="213.15844122715714"><g transform="matrix(1,0,0,1,0,0)"><svg width="213.15844122715714" viewBox="3.1 -37.5 190.02 50" height="56.079568857447285" data-palette-color="#ed2647"><path d="M7.75 0L3.1 0 3.1-35 21.7-35 21.7-30.35 7.75-30.35 7.75-21.7 17.05-21.7 16-17.05 7.75-17.05 7.75 0ZM32.4 0L21.95 0Q20.45 0 19.37-1.05 18.3-2.1 18.3-3.65L18.3-3.65 18.3-11.2Q18.3-12.7 19.37-13.78 20.45-14.85 21.95-14.85L21.95-14.85 25.85-14.85Q26.65-14.85 27.17-15.38 27.7-15.9 27.7-16.65L27.7-16.65 27.7-18.5Q27.7-19.25 27.17-19.78 26.65-20.3 25.85-20.3L25.85-20.3 20.45-20.3 21.5-25 28.75-25Q30.25-25 31.32-23.93 32.4-22.85 32.4-21.35L32.4-21.35 32.4 0ZM24.8-4.7L24.8-4.7 27.7-4.7 27.7-10.15 24.8-10.15Q24.05-10.15 23.52-9.63 23-9.1 23-8.35L23-8.35 23-6.5Q23-5.75 23.52-5.23 24.05-4.7 24.8-4.7ZM40.45 0L35.75 0 35.75-25 55.6-25Q57.1-25 58.15-23.93 59.2-22.85 59.2-21.35L59.2-21.35 59.2 0 54.55 0 54.55-18.5Q54.55-19.25 54-19.78 53.45-20.3 52.7-20.3L52.7-20.3 49.84-20.3 49.84 0 45.15 0 45.15-18.5Q45.15-19.25 44.6-19.78 44.05-20.3 43.3-20.3L43.3-20.3 40.45-20.3 40.45 0ZM67.09-32.8L62.39-31.7 62.39-36.4 67.09-37.5 67.09-32.8ZM67.19 0L62.49 0 62.49-23.9 67.19-25 67.19 0ZM75.39 0L70.69 0 70.69-36.35 75.39-37.4 75.39 0ZM89.89 12.5L83.04 12.5Q81.49 12.5 80.44 11.45 79.39 10.4 79.39 8.85L79.39 8.85 79.39 3.4 84.09 4.5 84.09 6Q84.09 6.7 84.64 7.25 85.19 7.8 85.89 7.8L85.89 7.8 86.99 7.8Q87.69 7.8 88.24 7.25 88.79 6.7 88.79 6L88.79 6 88.79 0 83.04 0Q81.49 0 80.44-1.05 79.39-2.1 79.39-3.65L79.39-3.65 79.39-25 84.09-25 84.09-6.5Q84.09-5.8 84.64-5.25 85.19-4.7 85.89-4.7L85.89-4.7 88.79-4.7 88.79-25 93.49-25 93.49 8.85Q93.49 10.4 92.44 11.45 91.39 12.5 89.89 12.5L89.89 12.5ZM120.53 0L109.18 0Q107.68 0 106.63-1.05 105.58-2.1 105.58-3.6L105.58-3.6 105.58-31.45Q105.58-32.9 106.63-33.95 107.68-35 109.18-35L109.18-35 120.53-35Q122.03-35 123.08-33.95 124.13-32.9 124.13-31.45L124.13-31.45 124.13-23.65 119.48-24.7 119.48-28.6Q119.48-29.35 118.96-29.88 118.43-30.4 117.68-30.4L117.68-30.4 112.03-30.4Q111.28-30.4 110.76-29.88 110.23-29.35 110.23-28.6L110.23-28.6 110.23-6.45Q110.23-5.7 110.76-5.18 111.28-4.65 112.03-4.65L112.03-4.65 117.68-4.65Q118.43-4.65 118.96-5.18 119.48-5.7 119.48-6.45L119.48-6.45 119.48-11.3 114.88-11.3 115.93-15.95 124.13-15.95 124.13-3.6Q124.13-2.1 123.08-1.05 122.03 0 120.53 0L120.53 0ZM143.33 0L132.88 0Q131.33 0 130.28-1.05 129.23-2.1 129.23-3.65L129.23-3.65 129.23-25 133.93-25 133.93-6.5Q133.93-5.8 134.48-5.25 135.03-4.7 135.73-4.7L135.73-4.7 138.63-4.7 138.63-25 143.33-25 143.33 0ZM159.93 0L149.48 0Q147.98 0 146.9-1.05 145.83-2.1 145.83-3.65L145.83-3.65 145.83-11.2Q145.83-12.7 146.9-13.78 147.98-14.85 149.48-14.85L149.48-14.85 153.38-14.85Q154.18-14.85 154.7-15.38 155.23-15.9 155.23-16.65L155.23-16.65 155.23-18.5Q155.23-19.25 154.7-19.78 154.18-20.3 153.38-20.3L153.38-20.3 147.98-20.3 149.03-25 156.28-25Q157.78-25 158.85-23.93 159.93-22.85 159.93-21.35L159.93-21.35 159.93 0ZM152.33-4.7L152.33-4.7 155.23-4.7 155.23-10.15 152.33-10.15Q151.58-10.15 151.05-9.63 150.53-9.1 150.53-8.35L150.53-8.35 150.53-6.5Q150.53-5.75 151.05-5.23 151.58-4.7 152.33-4.7ZM167.63 0L162.93 0 162.93-25 173.38-25Q174.88-25 175.95-23.93 177.03-22.85 177.03-21.35L177.03-21.35 177.03-15.9 172.33-16.95 172.33-18.45Q172.33-19.2 171.8-19.75 171.28-20.3 170.53-20.3L170.53-20.3 167.63-20.3 167.63 0ZM193.12 0L182.67 0Q181.12 0 180.07-1.05 179.02-2.1 179.02-3.65L179.02-3.65 179.02-21.35Q179.02-22.9 180.07-23.95 181.12-25 182.67-25L182.67-25 188.42-25 188.42-36.4 193.12-37.5 193.12 0ZM185.52-4.7L185.52-4.7 188.42-4.7 188.42-20.3 185.52-20.3Q184.82-20.3 184.27-19.8 183.72-19.3 183.72-18.5L183.72-18.5 183.72-6.5Q183.72-5.8 184.27-5.25 184.82-4.7 185.52-4.7Z" opacity="1" transform="matrix(1,0,0,1,0,0)" fill="#ffffff" class="wordmark-text-0" data-fill-palette-color="quaternary" id="text-0"></path></svg></g></svg></g><g transform="matrix(1,0,0,1,0,69.31860915503802)"><svg viewBox="0 0 213.15844122715714 22.147185370697624" height="22.147185370697624" width="213.15844122715714"><g transform="matrix(1,0,0,1,0,0)"><svg width="213.15844122715714" viewBox="4.492881972229998 -36.080434022211996 444.02667614103007 46.14301223887" height="22.147185370697624" data-palette-color="#ed2647"><path d="M4.9-2.35L4.9-2.35Q4.9-2.85 4.55-17.1L4.55-17.1Q4.35-26.95 4.85-33.1L4.85-33.1Q4.95-34.15 5.73-34.8 6.5-35.45 7.55-35.4L7.55-35.4Q8.05-35.35 8.5-35.1L8.5-35.1Q14.35-36.3 19.05-35.65L19.05-35.65Q27.3-34.5 29.75-28.15L29.75-28.15Q30.7-25.1 30.48-23.18 30.25-21.25 29.33-19.73 28.4-18.2 26.98-17.25 25.55-16.3 24.1-15.73 22.65-15.15 21-14.85L21-14.85Q15.9-13.8 9.65-14.5L9.65-14.5Q9.9-4.9 9.9-2.35L9.9-2.35Q9.9-1.3 9.18-0.58 8.45 0.15 7.4 0.15 6.35 0.15 5.63-0.58 4.9-1.3 4.9-2.35L4.9-2.35ZM9.55-19.45L9.55-19.45Q9.85-19.5 10.2-19.5L10.2-19.5Q15.65-18.85 20-19.75L20-19.75Q25.15-20.8 25.5-23.75L25.5-23.75Q25.6-24.45 25.05-26.35L25.05-26.35Q23.7-29.95 18.4-30.7L18.4-30.7Q14.6-31.2 9.7-30.25L9.7-30.25Q9.45-25.85 9.55-19.45L9.55-19.45ZM37.35 0L37.35 0Q36.35 0 35.6-0.68 34.85-1.35 34.85-2.5L34.85-2.5 34.75-12.7Q34.7-16.15 34.7-21.3L34.7-21.3 34.7-24.25Q34.7-25.4 35.4-26.05 36.1-26.7 37.1-26.7L37.1-26.7Q38.15-26.7 38.92-26.03 39.7-25.35 39.7-24.15L39.7-24.15 39.7-22.65Q40.25-23.85 41.75-24.7L41.75-24.7Q43.8-25.95 46.25-25.95L46.25-25.95Q48.1-25.95 49.1-25.35 50.1-24.75 50.1-23.2L50.1-23.2Q50.1-22.2 49.5-21.53 48.9-20.85 47.75-20.85L47.75-20.85Q43.55-20.85 41.95-19.7L41.95-19.7Q41.05-19.1 40.37-18.25 39.7-17.4 39.7-16.6L39.7-16.6 39.8-10.35 39.85-2.5Q39.85-1.35 39.1-0.68 38.35 0 37.35 0L37.35 0ZM65.34-0.35L65.34-0.35Q58.75 1.25 54.8-3L54.8-3Q51.65-6.25 50.9-11.35L50.9-11.35Q50.35-15.35 51.85-18.95L51.85-18.95Q53.65-23.55 57.55-25.75L57.55-25.75Q58.35-26.2 59.55-26.4L59.55-26.4Q59.6-26.4 60.25-26.45L60.25-26.45Q60.5-26.5 60.65-26.55L60.65-26.55Q61.4-26.7 62.15-26.4L62.15-26.4Q62.35-26.4 63.1-26.38 63.85-26.35 64.09-26.33 64.34-26.3 64.97-26.23 65.59-26.15 66-26.05L66-26.05 66.95-25.7Q67.55-25.5 68.09-25.2 68.65-24.9 69.3-24.5L69.3-24.5Q72.55-22.3 73.8-18.32 75.05-14.35 74.45-11.9L74.45-11.9Q74-9.2 72.84-6.88 71.7-4.55 69.67-2.75 67.65-0.95 65.34-0.35L65.34-0.35ZM63.8-5.55L63.8-5.55Q65.95-5.85 67.47-7.78 69-9.7 69.47-11.85 69.95-14 69.12-16.57 68.3-19.15 66.5-20.3L66.5-20.3Q65.95-20.7 65.59-20.88 65.25-21.05 64.77-21.18 64.3-21.3 64.02-21.3 63.75-21.3 62.85-21.35 61.95-21.4 61.25-21.45L61.25-21.45Q61.1-21.45 60.9-21.5L60.9-21.5Q60.35-21.45 60.3-21.45L60.3-21.45 59.95-21.35Q57.75-20.15 56.57-17.53 55.4-14.9 55.9-12.1L55.9-12.1Q56.45-8.7 58.35-6.95L58.35-6.95Q60.4-5.05 63.8-5.55L63.8-5.55ZM87.84-0.15L87.84-0.15Q87.54-0.25 86.62-0.45 85.69-0.65 85.02-0.9 84.34-1.15 83.47-1.63 82.59-2.1 81.89-2.93 81.19-3.75 80.69-4.9L80.69-4.9Q80.14-6.25 79.99-10.2L79.99-10.2Q79.84-13.25 79.94-18.05L79.94-18.05Q79.94-18.95 79.99-21.05L79.99-21.05 79.59-21Q78.54-20.9 77.74-21.55 76.94-22.2 76.82-23.23 76.69-24.25 77.34-25.05 77.99-25.85 78.99-26L78.99-26 80.14-26.1Q80.19-28.75 80.29-31.45L80.29-31.45Q80.34-32.5 81.09-33.2 81.84-33.9 82.89-33.85 83.94-33.8 84.64-33.05 85.34-32.3 85.29-31.25L85.29-31.25 85.14-26.5 86.79-26.6Q87.84-26.65 88.62-26 89.39-25.35 89.47-24.3 89.54-23.25 88.89-22.48 88.24-21.7 87.19-21.6L87.19-21.6 84.99-21.5Q84.94-19.1 84.94-18L84.94-18Q84.84-13.3 84.99-10.35L84.99-10.35Q85.09-7.35 85.29-6.9 85.49-6.45 85.59-6.28 85.69-6.1 85.97-5.93 86.24-5.75 86.54-5.7 86.84-5.65 87.67-5.43 88.49-5.2 89.44-4.85L89.44-4.85Q90.39-4.55 90.87-3.63 91.34-2.7 91.02-1.73 90.69-0.75 89.77-0.28 88.84 0.2 87.84-0.15L87.84-0.15ZM106.74 0.25L106.74 0.25Q103.04 0 100.29-1.25 97.54-2.5 96.09-4.4 94.64-6.3 93.99-7.9 93.34-9.5 93.19-11.08 93.04-12.65 93.34-15.15L93.34-15.15Q93.69-17.25 94.82-19.3 95.94-21.35 97.82-22.98 99.69-24.6 102.34-25.48 104.99-26.35 107.99-26L107.99-26Q110.89-25.65 112.94-24.43 114.99-23.2 116.44-21.3L116.44-21.3Q117.69-19.7 117.97-18.9 118.24-18.1 118.47-17.4 118.69-16.7 118.84-16.2 118.99-15.7 119.12-15.18 119.24-14.65 119.29-13.95L119.29-13.95Q119.34-13 118.94-12.2 118.54-11.4 117.74-10.95L117.74-10.95Q117.09-10.7 116.34-10.7L116.34-10.7 107.79-10.55Q98.79-10.5 98.79-10.35L98.79-10.35 98.64-10.35Q99.29-7.8 101.37-6.35 103.44-4.9 107.04-4.65L107.04-4.65Q108.99-4.55 110.29-4.85L110.29-4.85Q111.74-5.25 112.39-5.58 113.04-5.9 113.99-6.45L113.99-6.45Q114.94-6.8 115.89-6.35 116.84-5.9 117.19-4.95 117.54-4 117.12-3.1 116.69-2.2 115.79-1.7L115.79-1.7Q114.99-1.25 114.14-0.93 113.29-0.6 111.64-0.15 109.99 0.3 106.74 0.25L106.74 0.25ZM98.74-15.25L98.74-15.25Q101.64-15.4 113.79-15.55L113.79-15.55Q113.34-17.05 112.34-18.4L112.34-18.4Q110.34-20.7 107.39-21.05L107.39-21.05Q104.29-21.45 101.94-19.73 99.59-18 98.74-15.25L98.74-15.25ZM135.79 0.1L135.79 0.1Q132.94 0.15 130.21-0.9 127.49-1.95 125.74-3.95L125.74-3.95Q123.94-6.05 123.36-8.97 122.79-11.9 123.31-14.55 123.84-17.2 125.09-19.65L125.09-19.65Q126.09-21.5 127.49-22.98 128.89-24.45 130.76-25.48 132.64-26.5 134.76-26.58 136.89-26.65 139.34-25.65L139.34-25.65Q140.64-25.05 141.99-23.75L141.99-23.75 143.59-22.15Q144.39-21.5 144.49-20.45 144.59-19.4 143.91-18.63 143.24-17.85 142.19-17.75 141.14-17.65 140.39-18.35L140.39-18.35Q139.94-18.7 139.34-19.3L139.34-19.3 138.49-20.15Q137.79-20.85 137.34-21.05L137.34-21.05Q135.09-22.05 133.04-21.03 130.99-20 129.54-17.3L129.54-17.3Q128.04-14.5 128.06-11.7 128.09-8.9 129.54-7.25L129.54-7.25Q130.44-6.2 132.14-5.55 133.84-4.9 135.74-4.9L135.74-4.9Q139.59-5 140.69-7.65L140.69-7.65 140.64-7.9 140.64-9.35Q140.69-10.4 141.46-11.08 142.24-11.75 143.29-11.7 144.34-11.65 145.01-10.88 145.69-10.1 145.64-9.05L145.64-9.05 145.64-7.95Q145.69-6.7 145.29-5.75L145.29-5.75Q144.14-2.85 141.51-1.4 138.89 0.05 135.79 0.1L135.79 0.1ZM158.94-0.15L158.94-0.15Q158.64-0.25 157.71-0.45 156.79-0.65 156.11-0.9 155.44-1.15 154.56-1.63 153.69-2.1 152.99-2.93 152.29-3.75 151.79-4.9L151.79-4.9Q151.24-6.25 151.09-10.2L151.09-10.2Q150.94-13.25 151.04-18.05L151.04-18.05Q151.04-18.95 151.09-21.05L151.09-21.05 150.69-21Q149.64-20.9 148.84-21.55 148.04-22.2 147.91-23.23 147.79-24.25 148.44-25.05 149.09-25.85 150.09-26L150.09-26 151.24-26.1Q151.29-28.75 151.39-31.45L151.39-31.45Q151.44-32.5 152.19-33.2 152.94-33.9 153.99-33.85 155.04-33.8 155.74-33.05 156.44-32.3 156.39-31.25L156.39-31.25 156.24-26.5 157.89-26.6Q158.94-26.65 159.71-26 160.49-25.35 160.56-24.3 160.64-23.25 159.99-22.48 159.34-21.7 158.29-21.6L158.29-21.6 156.09-21.5Q156.04-19.1 156.04-18L156.04-18Q155.94-13.3 156.09-10.35L156.09-10.35Q156.19-7.35 156.39-6.9 156.59-6.45 156.69-6.28 156.79-6.1 157.06-5.93 157.34-5.75 157.64-5.7 157.94-5.65 158.76-5.43 159.59-5.2 160.54-4.85L160.54-4.85Q161.49-4.55 161.96-3.63 162.44-2.7 162.11-1.73 161.79-0.75 160.86-0.28 159.94 0.2 158.94-0.15L158.94-0.15ZM181.08-2.4L181.08-2.4Q181.08-4.35 181.16-11.4 181.23-18.45 181.16-22.98 181.08-27.5 180.73-32.2L180.73-32.2Q180.73-32.5 180.78-32.8L180.78-32.8Q180.73-33 180.73-33.15L180.73-33.15Q180.73-34.2 181.43-34.95 182.13-35.7 183.18-35.7L183.18-35.7Q197.08-35.95 203.53-35.7L203.53-35.7Q204.58-35.65 205.28-34.9 205.98-34.15 205.93-33.1 205.88-32.05 205.13-31.35 204.38-30.65 203.33-30.7L203.33-30.7Q197.03-30.95 185.83-30.75L185.83-30.75Q186.13-26.05 186.18-20.4L186.18-20.4Q189.48-20.4 201.03-20.55L201.03-20.55Q202.08-20.55 202.83-19.83 203.58-19.1 203.58-18.07 203.58-17.05 202.86-16.3 202.13-15.55 201.13-15.55L201.13-15.55Q189.53-15.4 186.18-15.4L186.18-15.4Q186.18-13.75 186.13-9.28 186.08-4.8 186.08-2.4L186.08-2.4Q186.08-1.35 185.36-0.63 184.63 0.1 183.58 0.1 182.53 0.1 181.81-0.63 181.08-1.35 181.08-2.4L181.08-2.4ZM221.68-0.8L221.68-0.8Q219.88-0.1 217.6 0 215.33 0.1 213.38-0.53 211.43-1.15 209.93-2.45L209.93-2.45Q207.33-4.6 206.58-7.8 205.83-11 206.53-13.55 207.23-16.1 208.65-18.53 210.08-20.95 211.75-22.63 213.43-24.3 215.63-25.45 217.83-26.6 220.23-26.58 222.63-26.55 225.28-25.25L225.28-25.25Q225.68-25.05 226.15-24.65 226.63-24.25 226.98-23.95L226.98-23.95 227.63-23.3Q227.93-23 227.93-22.95L227.93-22.95Q228.73-22.25 228.78-21.15L228.78-21.15Q229.43-18.15 229.63-14.85 229.83-11.55 229.75-8.65 229.68-5.75 229.83-2.5L229.83-2.5Q229.88-1.5 229.18-0.75 228.48 0 227.43 0.05 226.38 0.1 225.63-0.6 224.88-1.3 224.83-2.3L224.83-2.3 224.83-3.05Q223.33-1.5 221.68-0.8L221.68-0.8ZM219.43-5.3L219.43-5.3Q220.18-5.5 220.63-5.7 221.08-5.9 221.75-6.3 222.43-6.7 223.18-7.3 223.93-7.9 224.53-8.8L224.53-8.8Q224.63-8.9 224.78-9L224.78-9Q224.78-15.75 223.93-19.85L223.93-19.85Q223.78-20.05 223.6-20.23 223.43-20.4 223.35-20.5 223.28-20.6 223.15-20.68 223.03-20.75 222.88-20.85L222.88-20.85Q220.48-22.15 217.83-20.93 215.18-19.7 213.18-16.35L213.18-16.35Q211.18-12.95 211.2-10.43 211.23-7.9 213.13-6.25L213.13-6.25Q214.28-5.3 215.98-5.05 217.68-4.8 219.43-5.3L219.43-5.3ZM266.43-2.2L266.43-2.2Q266.38-3.1 266.3-3.88 266.23-4.65 266.2-5.03 266.18-5.4 266.15-5.68 266.13-5.95 266.13-6.3L266.13-6.3 266.13-9.15Q266.13-9.95 266.2-11.98 266.28-14 266.25-15.4 266.23-16.8 265.98-18.05L265.98-18.05Q265.68-19.8 264.93-20.58 264.18-21.35 262.63-21.35L262.63-21.35Q259.18-21.3 255.73-17.15L255.73-17.15Q255.88-15.65 255.88-11.35L255.88-11.35Q255.88-8.2 256.03-2.55L256.03-2.55Q256.08-1.55 255.35-0.8 254.63-0.05 253.6 0 252.58 0.05 251.83-0.68 251.08-1.4 251.03-2.45L251.03-2.45Q250.88-8.1 250.88-11.35L250.88-11.35 250.88-13.85Q250.88-14.1 250.85-14.9 250.83-15.7 250.8-16.07 250.78-16.45 250.7-17.07 250.63-17.7 250.55-18.18 250.48-18.65 250.33-19.1L250.33-19.1Q249.93-20.5 249.23-21.05L249.23-21.05Q248.48-21.65 246.98-21.5L246.98-21.5Q245.33-21.35 244.13-20.6L244.13-20.6Q242.98-19.85 241.78-18.2L241.78-18.2Q241.53-17.9 241.23-17.65L241.23-17.65Q241.43-7.65 241.23-2.4L241.23-2.4Q241.18-1.35 240.43-0.65 239.68 0.05 238.63 0 237.58-0.05 236.88-0.8 236.18-1.55 236.23-2.6L236.23-2.6Q236.33-8.15 236.33-9.73 236.33-11.3 236.2-16.98 236.08-22.65 236.08-24.25L236.08-24.25Q236.08-25 236.8-25.75 237.53-26.5 238.53-26.5 239.53-26.5 240.33-25.88 241.13-25.25 241.08-23.55L241.08-23.55Q243.33-26.2 246.58-26.5L246.58-26.5Q250.03-26.8 252.33-24.95L252.33-24.95Q253.53-24 254.48-22.3L254.48-22.3Q257.58-26.2 262.63-26.5L262.63-26.5Q266.33-26.55 268.58-24.2L268.58-24.2Q270.33-22.15 270.93-18.95L270.93-18.95Q271.18-17.45 271.23-15.68 271.28-13.9 271.2-11.68 271.13-9.45 271.13-9.15L271.13-9.15 271.13-6.4Q271.13-6.15 271.15-5.9 271.18-5.65 271.2-5.33 271.23-5 271.28-4.25 271.33-3.5 271.43-2.6L271.43-2.6Q271.48-1.55 270.8-0.78 270.13 0 269.1 0.08 268.08 0.15 267.3-0.53 266.53-1.2 266.43-2.2L266.43-2.2ZM277.47-2.4L277.47-2.4Q277.37-6.15 277.5-13.9 277.62-21.65 277.62-24.05L277.62-24.05Q277.62-25.1 278.35-25.83 279.07-26.55 280.12-26.55 281.17-26.55 281.9-25.83 282.62-25.1 282.62-24.05L282.62-24.05Q282.62-21.65 282.5-13.95 282.37-6.25 282.47-2.5L282.47-2.5Q282.47-1.45 281.77-0.7 281.07 0.05 280.02 0.05 278.97 0.05 278.22-0.65 277.47-1.35 277.47-2.4L277.47-2.4ZM282.12-35.2L282.12-35.2Q282.97-34.35 282.97-33.1 282.97-31.85 282.12-31 281.27-30.15 280.02-30.15 278.77-30.15 277.92-31 277.07-31.85 277.07-33.1 277.07-34.35 277.92-35.2 278.77-36.05 280.05-36.08 281.32-36.1 282.12-35.2L282.12-35.2ZM293.87-2.4L293.87-2.4Q293.82-1.35 293.07-0.65 292.32 0.05 291.27 0 290.22-0.05 289.52-0.8 288.82-1.55 288.87-2.6L288.87-2.6Q289.07-9.25 289.07-12.7 289.07-16.15 288.97-23 288.87-29.85 288.87-33.3L288.87-33.3Q288.87-34.35 289.6-35.08 290.32-35.8 291.37-35.8 292.42-35.8 293.15-35.08 293.87-34.35 293.87-33.3L293.87-33.3Q293.87-29.85 293.97-23.5 294.07-17.15 294.05-11.98 294.02-6.8 293.87-2.4L293.87-2.4ZM299.67 10.05L299.67 10.05Q298.62 10.15 297.82 9.47 297.02 8.8 296.92 7.78 296.82 6.75 297.49 5.95 298.17 5.15 299.17 5.05L299.17 5.05Q299.67 5 300.37 4.95 301.07 4.9 301.29 4.88 301.52 4.85 301.87 4.78 302.22 4.7 302.42 4.55L302.42 4.55 302.92 4.25Q304.12 3.65 305.07 0.9L305.07 0.9Q305.37 0.05 305.67-0.3L305.67-0.3Q305.32-0.7 305.12-1.25L305.12-1.25Q304.22-5.1 301.42-12.65L301.42-12.65Q298.92-19.3 297.72-23.3L297.72-23.3Q297.42-24.3 297.92-25.2 298.42-26.1 299.42-26.4 300.42-26.7 301.32-26.2 302.22-25.7 302.52-24.7L302.52-24.7Q303.47-21.5 306.12-14.4L306.12-14.4 308.02-9.2Q311.52-19.9 314.42-25.25L314.42-25.25Q314.92-26.15 315.92-26.45 316.92-26.75 317.82-26.25 318.72-25.75 319.02-24.75 319.32-23.75 318.82-22.85L318.82-22.85Q317.52-20.45 316.12-17 314.72-13.55 313.92-11.2 313.12-8.85 311.82-4.65L311.82-4.65Q311.52-3.65 311.42-3.25L311.42-3.25Q311.17-2.6 310.72-0.65L310.72-0.65Q310.17 1.2 309.82 2.35L309.82 2.35Q308.42 6.25 306.02 8.15L306.02 8.15Q305.32 8.7 304.62 9.08 303.92 9.45 303.14 9.63 302.37 9.8 301.92 9.88 301.47 9.95 300.64 9.98 299.82 10 299.67 10.05L299.67 10.05ZM347.67 0.2L347.67 0.2Q346.82 0.2 345.97-0.5L345.97-0.5 344.17-2.1Q341.47-4.4 340.22-5.65L340.22-5.65Q335.62-10.2 333.27-12.88 330.92-15.55 328.82-18.7L328.82-18.7Q325.77-23.35 325.77-26.9L325.77-26.9Q325.77-29.1 326.99-31.1 328.22-33.1 330.32-34.33 332.42-35.55 334.92-35.55L334.92-35.55Q338.27-35.55 340.17-33.85 342.07-32.15 342.07-29.55L342.07-29.55Q342.07-27 340.47-24.83 338.87-22.65 335.42-20.1L335.42-20.1Q333.07-18.4 332.42-17.85L332.42-17.85Q329.57-15.65 328.37-13.93 327.17-12.2 327.17-10L327.17-10Q327.17-7.7 328.64-6.28 330.12-4.85 332.57-4.85L332.57-4.85Q337.12-4.85 340.17-9.3L340.17-9.3Q341.37-11.1 342.47-14.35L342.47-14.35Q342.92-15.5 343.54-16.05 344.17-16.6 345.07-16.6L345.07-16.6Q346.17-16.6 346.79-15.9 347.42-15.2 347.42-14.15L347.42-14.15Q347.42-12.6 346.34-10.13 345.27-7.65 343.77-5.75L343.77-5.75Q341.77-3.2 338.79-1.63 335.82-0.05 332.52-0.05L332.52-0.05Q329.47-0.05 327.12-1.3L327.12-1.3Q324.72-2.55 323.39-4.75 322.07-6.95 322.07-9.7L322.07-9.7Q322.07-13.25 323.97-16.07 325.87-18.9 329.92-21.7L329.92-21.7Q333.32-24 335.12-25.65L335.12-25.65Q337.12-27.4 337.12-28.95L337.12-28.95Q337.12-29.75 336.52-30.28 335.92-30.8 334.62-30.8L334.62-30.8Q333.12-30.8 331.94-29.63 330.77-28.45 330.77-26.9L330.77-26.9Q330.77-25.55 331.22-24.4 331.67-23.25 332.77-21.3L332.77-21.3Q333.77-19.5 336.89-15.93 340.02-12.35 343.17-9.55L343.17-9.55Q345.17-7.75 349.47-4.1L349.47-4.1Q350.27-3.45 350.27-2.35L350.27-2.35Q350.27-1.35 349.49-0.58 348.72 0.2 347.67 0.2L347.67 0.2ZM380.56-0.9L367.86-17.05 362.66-12.75Q362.71-6.9 362.91-2.6L362.91-2.6Q362.96-1.55 362.29-0.78 361.61 0 360.56 0.05 359.51 0.1 358.74-0.58 357.96-1.25 357.91-2.3L357.91-2.3Q357.76-5.3 357.71-8.2L357.71-8.2Q357.66-11.8 357.66-15.55 357.66-19.3 357.61-21.4L357.61-21.4Q357.61-22.7 357.41-26.78 357.21-30.85 357.26-33.3L357.26-33.3Q357.26-34.35 358.01-35.05 358.76-35.75 359.81-35.75 360.86-35.75 361.56-35 362.26-34.25 362.26-33.2L362.26-33.2Q362.21-30.8 362.41-26.8 362.61-22.8 362.61-21.5L362.61-21.5Q362.61-20.4 362.66-19.15L362.66-19.15Q370.51-25.7 378.96-34.9L378.96-34.9Q379.66-35.65 380.71-35.7 381.76-35.75 382.51-35.05 383.26-34.35 383.31-33.3 383.36-32.25 382.66-31.5L382.66-31.5Q377.06-25.3 371.61-20.35L371.61-20.35 384.46-4Q385.11-3.2 384.99-2.18 384.86-1.15 384.06-0.5 383.26 0.15 382.24 0.03 381.21-0.1 380.56-0.9L380.56-0.9ZM388.31-2.4L388.31-2.4Q388.21-6.15 388.34-13.9 388.46-21.65 388.46-24.05L388.46-24.05Q388.46-25.1 389.19-25.83 389.91-26.55 390.96-26.55 392.01-26.55 392.74-25.83 393.46-25.1 393.46-24.05L393.46-24.05Q393.46-21.65 393.34-13.95 393.21-6.25 393.31-2.5L393.31-2.5Q393.31-1.45 392.61-0.7 391.91 0.05 390.86 0.05 389.81 0.05 389.06-0.65 388.31-1.35 388.31-2.4L388.31-2.4ZM392.96-35.2L392.96-35.2Q393.81-34.35 393.81-33.1 393.81-31.85 392.96-31 392.11-30.15 390.86-30.15 389.61-30.15 388.76-31 387.91-31.85 387.91-33.1 387.91-34.35 388.76-35.2 389.61-36.05 390.89-36.08 392.16-36.1 392.96-35.2L392.96-35.2ZM419.61 0L419.61 0Q418.81 0 418.16-0.45 417.51-0.9 417.26-2.15L417.26-2.15Q415.11-0.6 412.76-0.15L412.76-0.15Q409.51 0.45 406.81-0.5 404.11-1.45 402.26-3.65L402.26-3.65Q398.91-7.55 398.96-13.55L398.96-13.55Q399.01-18.95 402.46-22.85L402.46-22.85Q406.61-27.5 413.36-26.3L413.36-26.3Q415.66-25.9 416.86-25.25L416.86-25.25 416.76-33.25Q416.76-34.3 417.48-35.05 418.21-35.8 419.23-35.8 420.26-35.8 421.01-35.08 421.76-34.35 421.76-33.35L421.76-33.35Q422.11-10.55 422.11-2.5L422.11-2.5Q422.11-1.45 421.38-0.73 420.66 0 419.61 0L419.61 0ZM411.86-5.05L411.86-5.05Q412.81-5.25 413.86-5.75 414.91-6.25 415.33-6.58 415.76-6.9 415.98-7.15 416.21-7.4 416.51-7.73 416.81-8.05 417.06-8.75L417.06-8.75Q417.06-15.1 416.96-18.85L416.96-18.85Q416.91-18.85 416.86-18.9L416.86-18.9Q414.76-20.7 414.76-20.75L414.76-20.75Q414.21-21.1 412.46-21.4L412.46-21.4Q408.46-22.1 406.21-19.5L406.21-19.5Q403.96-17.05 403.96-13.55L403.96-13.55Q403.91-9.4 406.06-6.88 408.21-4.35 411.86-5.05L411.86-5.05ZM433.96 0L433.96 0Q430.25-0.65 428.61-3L428.61-3Q427.81-4.05 427.46-5.8L427.46-5.8 427.25-6.9Q427.16-7.4 427.06-7.7L427.06-7.7Q426.75-8.65 427.25-9.55 427.75-10.45 428.75-10.7 429.75-10.95 430.66-10.5 431.56-10.05 431.86-9.05L431.86-9.05Q432-8.5 432.16-7.8L432.16-7.8Q432.21-7.55 432.23-7.33 432.25-7.1 432.41-6.55L432.41-6.55Q432.56-5.9 433.11-5.45L433.11-5.45Q433.71-4.9 434.91-4.75L434.91-4.75Q436.91-4.35 439.21-4.85L439.21-4.85Q441.46-5.35 442.71-6.3L442.71-6.3Q443.61-7.1 443.46-7.95L443.46-7.95Q443.31-9.35 441.71-10.05L441.71-10.05Q440.71-10.5 436.5-11.25L436.5-11.25Q432.16-12.1 430.36-13.45L430.36-13.45Q427.06-15.9 428.21-20.75L428.21-20.75Q428.91-23.55 431.08-24.88 433.25-26.2 435.91-26.35L435.91-26.35Q438.16-26.45 440.48-25.83 442.81-25.2 444.46-24.1L444.46-24.1Q445-23.7 445.61-23.15 446.21-22.6 446.78-21.95 447.36-21.3 447.46-21.25L447.46-21.25Q448.21-20.5 448.21-19.53 448.21-18.55 447.48-17.82 446.75-17.1 445.73-17.1 444.71-17.1 443.96-17.8L443.96-17.8Q443.46-18.25 442.96-18.75L442.96-18.75 442.25-19.6Q441.96-19.85 441.56-20.1L441.56-20.1Q440.61-20.7 439.11-21.13 437.61-21.55 436.16-21.5L436.16-21.5Q433.5-21.35 433.11-19.65L433.11-19.65Q432.66-17.85 433.41-17.3L433.41-17.3Q434.31-16.65 437.46-16L437.46-16Q442.11-15.2 443.81-14.45L443.81-14.45Q447.91-12.6 448.46-8.5L448.46-8.5Q448.91-5.15 445.96-2.7L445.96-2.7Q443.71-0.85 440.25-0.15L440.25-0.15Q436.96 0.6 433.96 0L433.96 0Z" opacity="1" transform="matrix(1,0,0,1,0,0)" fill="#ffffff" class="slogan-text-1" data-fill-palette-color="quaternary" id="text-1"></path></svg></g></svg></g></svg></g></svg></g><g transform="matrix(1,0,0,1,53.957638608353214,0)"><svg viewBox="0 0 105.24316401045071 126.40572803456666" height="126.40572803456666" width="105.24316401045071"><g><svg xmlns="http://www.w3.org/2000/svg" xmlns:xlink="http://www.w3.org/1999/xlink" version="1.1" x="0" y="0" viewBox="12.533460014274064 4.9994232208597245 74.93288168406453 90.00057677914027" enable-background="new 0 0 100 100" xml:space="preserve" height="126.40572803456666" width="105.24316401045071" class="icon-icon-0" data-fill-palette-color="quaternary" id="icon-0"><g fill="#ed2647" data-fill-palette-color="quaternary"><path d="M84.202 16.572C67.557 16.081 57.128 9.526 52.566 5.85c-1.306-1.055-3.312-1.145-4.678-0.178-4.797 3.374-16.44 10.292-32.15 10.883-1.673 0.074-3.078 1.397-3.113 3.067-0.137 6.434-0.293 21.864 0.932 34.303 2.649 15.859 26.22 34.589 33.996 40.328 1.349 0.996 3.605 0.996 4.954 0 7.776-5.739 31.349-24.469 33.998-40.328 1.223-12.438 0.996-27.869 0.824-34.303C87.285 17.952 85.875 16.62 84.202 16.572zM60.16 47.386l2.395 13.982L50 54.769l-12.555 6.6 2.395-13.982-10.164-9.908 14.047-2.037L50 22.71l6.277 12.73 14.045 2.037L60.16 47.386z" fill="#ffffff" data-fill-palette-color="quaternary"></path></g></svg></g></svg></g><g></g></svg></g></svg></g></svg></g></svg></g><defs></defs></svg><rect width="333.90454557049503" height="333.90454557049503" fill="none" stroke="none" visibility="hidden"></rect></g></svg></g></svg>